<svg width="88.000000" height="36.000000" viewBox="0 0 88 36" fill="none" xmlns="http://www.w3.org/2000/svg" xmlns:xlink="http://www.w3.org/1999/xlink">
	<desc>
			Created with Pixso.
	</desc>
	<defs>
		<clipPath id="clip2_983">
			<rect id="onDark" rx="-0.370114" width="87.259773" height="35.259773" transform="translate(0.370114 0.370114)" fill="white" fill-opacity="0"/>
		</clipPath>
	</defs>
	<rect id="onDark" rx="-0.370114" width="87.259773" height="35.259773" transform="translate(0.370114 0.370114)" fill="#FFFFFF" fill-opacity="0"/>
	<g clip-path="url(#clip2_983)">
		<path id="Vector" d="M33.49 7.87L33.49 26.89L40.29 26.89C45.86 26.89 49.13 23.36 49.13 17.34C49.13 11.31 45.84 7.87 40.29 7.87L33.49 7.87ZM36.82 10.74L39.94 10.74C43.65 10.74 45.74 13.09 45.74 17.35C45.74 21.69 43.68 24.02 39.94 24.02L36.82 24.02L36.82 10.74Z" fill="#121127" fill-opacity="1.000000" fill-rule="nonzero"/>
		<path id="Vector" d="M51.54 26.89L54.75 26.89L54.75 7.87L51.54 7.87L51.54 26.89Z" fill="#121127" fill-opacity="1.000000" fill-rule="nonzero"/>
		<path id="Vector" d="M66.53 22.72C66.18 23.88 65.05 24.64 63.55 24.64C61.45 24.64 60.11 23.14 60.11 20.9L60.11 20.7L69.66 20.7L69.66 19.63C69.66 15.38 67.24 12.63 63.36 12.63C59.42 12.63 56.92 15.54 56.92 19.96C56.92 24.42 59.39 27.17 63.49 27.17C66.73 27.17 69.12 25.35 69.54 22.72L66.53 22.72ZM63.37 15.17C65.22 15.17 66.46 16.56 66.52 18.54L60.14 18.54C60.27 16.58 61.57 15.17 63.37 15.17Z" fill="#121127" fill-opacity="1.000000" fill-rule="nonzero"/>
		<path id="Vector" d="M76.84 21.88L79.68 26.89L83.19 26.89L78.84 19.83L83.24 12.92L79.72 12.92L77 17.82L76.93 17.82L74.18 12.92L70.57 12.92L74.94 19.92L70.53 26.89L73.94 26.89L76.78 21.88L76.84 21.88Z" fill="#121127" fill-opacity="1.000000" fill-rule="nonzero"/>
		<path id="Vector" d="M13.2 31.49C20.49 31.49 26.4 25.45 26.4 18C26.4 10.54 20.49 4.5 13.2 4.5C18.37 6.7 21.99 11.91 21.99 18C21.99 24.07 18.37 29.29 13.2 31.49Z" fill="#121127" fill-opacity="0.320000" fill-rule="evenodd"/>
		<path id="Vector" d="M0 9.3C0 6.64 2.07 4.5 4.63 4.5L7.7 4.5C14.99 4.5 20.9 10.54 20.9 18C20.9 25.45 14.99 31.5 7.7 31.5L4.63 31.5C2.07 31.5 0 29.35 0 26.7L0 9.3Z" fill="#121127" fill-opacity="1.000000" fill-rule="nonzero"/>
	</g>
</svg>
